{
  "accessors": [
    {
      "bufferView": 1,
      "componentType": 5126,
      "count": 9468,
      "max": [
        2632.03076171875,
        2454.691162109375,
        2298.04931640625
      ],
      "min": [
        -2632.03076171875,
        -2333.843994140625,
        1454.1502685546875
      ],
      "type": "VEC3"
    },
    {
      "bufferView": 1,
      "byteOffset": 113616,
      "componentType": 5126,
      "count": 9468,
      "max": [
        1.0,
        1.0,
        1.0
      ],
      "min": [
        -1.0,
        -1.0,
        -1.0
      ],
      "type": "VEC3"
    },
    {
      "bufferView": 0,
      "componentType": 5125,
      "count": 22512,
      "type": "SCALAR"
    },
    {
      "bufferView": 1,
      "byteOffset": 227232,
      "componentType": 5126,
      "count": 35412,
      "max": [
        2611.07568359375,
        2393.731201171875,
        1454.150390625
      ],
      "min": [
        -2611.07568359375,
        -2393.731201171875,
        242.06475830078125
      ],
      "type": "VEC3"
    },
    {
      "bufferView": 1,
      "byteOffset": 652176,
      "componentType": 5126,
      "count": 35412,
      "max": [
        1.0,
        1.0,
        1.0
      ],
      "min": [
        -1.0,
        -1.0,
        -1.0
      ],
      "type": "VEC3"
    },
    {
      "bufferView": 0,
      "byteOffset": 90048,
      "componentType": 5125,
      "count": 127794,
      "type": "SCALAR"
    },
    {
      "bufferView": 1,
      "byteOffset": 1077120,
      "componentType": 5126,
      "count": 22407,
      "max": [
        2601.55029296875,
        1934.32421875,
        1454.1500244140625
      ],
      "min": [
        -2601.55029296875,
        -1039.0799560546875,
        330.2242126464844
      ],
      "type": "VEC3"
    },
    {
      "bufferView": 1,
      "byteOffset": 1346004,
      "componentType": 5126,
      "count": 22407,
      "max": [
        1.0,
        1.0,
        1.0
      ],
      "min": [
        -1.0,
        -1.0,
        -1.0
      ],
      "type": "VEC3"
    },
    {
      "bufferView": 0,
      "byteOffset": 601224,
      "componentType": 5125,
      "count": 50379,
      "type": "SCALAR"
    },
    {
      "bufferView": 1,
      "byteOffset": 1614888,
      "componentType": 5126,
      "count": 275,
      "max": [
        857.2152709960938,
        2294.187255859375,
        1117.60009765625
      ],
      "min": [
        -857.2152709960938,
        1496.57470703125,
        986.7899780273438
      ],
      "type": "VEC3"
    },
    {
      "bufferView": 1,
      "byteOffset": 1618188,
      "componentType": 5126,
      "count": 275,
      "max": [
        1.0,
        0.9940811991691589,
        1.0
      ],
      "min": [
        -1.0,
        -1.0,
        -1.0
      ],
      "type": "VEC3"
    },
    {
      "bufferView": 0,
      "byteOffset": 802740,
      "componentType": 5125,
      "count": 534,
      "type": "SCALAR"
    }
  ],
  "asset": {
    "extras": {
      "author": "3Dlights (https://sketchfab.com/3Dlights)",
      "license": "CC-BY-NC-4.0 (http://creativecommons.org/licenses/by-nc/4.0/)",
      "source": "https://sketchfab.com/3d-models/white-house-2-3ed81aa01af2419a86d5bddf9dca1a16",
      "title": "White House 2"
    },
    "generator": "Sketchfab-12.67.0",
    "version": "2.0"
  },
  "bufferViews": [
    {
      "buffer": 0,
      "byteLength": 804876,
      "name": "floatBufferViews",
      "target": 34963
    },
    {
      "buffer": 0,
      "byteLength": 1621488,
      "byteOffset": 804876,
      "byteStride": 12,
      "name": "floatBufferViews",
      "target": 34962
    }
  ],
  "buffers": [
    {
      "byteLength": 2426364,
      "uri": "scene.bin"
    }
  ],
  "materials": [
    {
      "doubleSided": true,
      "name": "Root",
      "pbrMetallicRoughness": {
        "metallicFactor": 0.0,
        "roughnessFactor": 0.6
      }
    }
  ],
  "meshes": [
    {
      "name": "White house roof_0",
      "primitives": [
        {
          "attributes": {
            "NORMAL": 1,
            "POSITION": 0
          },
          "indices": 2,
          "material": 0,
          "mode": 4
        }
      ]
    },
    {
      "name": "White house_0",
      "primitives": [
        {
          "attributes": {
            "NORMAL": 4,
            "POSITION": 3
          },
          "indices": 5,
          "material": 0,
          "mode": 4
        }
      ]
    },
    {
      "name": "White house.020_0",
      "primitives": [
        {
          "attributes": {
            "NORMAL": 7,
            "POSITION": 6
          },
          "indices": 8,
          "material": 0,
          "mode": 4
        }
      ]
    },
    {
      "name": "White house.001_0",
      "primitives": [
        {
          "attributes": {
            "NORMAL": 10,
            "POSITION": 9
          },
          "indices": 11,
          "material": 0,
          "mode": 4
        }
      ]
    }
  ],
  "nodes": [
    {
      "children": [
        1
      ],
      "matrix": [
        1.0,
        0.0,
        0.0,
        0.0,
        0.0,
        2.220446049250313e-16,
        -1.0,
        0.0,
        0.0,
        1.0,
        2.220446049250313e-16,
        0.0,
        0.0,
        0.0,
        0.0,
        1.0
      ],
      "name": "Sketchfab_model"
    },
    {
      "children": [
        2,
        4,
        10
      ],
      "name": "Root"
    },
    {
      "children": [
        3
      ],
      "matrix": [
        0.0036800000000000014,
        0.0,
        0.0,
        0.0,
        0.0,
        0.0036800000000000014,
        0.0,
        0.0,
        0.0,
        0.0,
        0.0036800000000000014,
        0.0,
        0.0,
        0.0,
        0.0,
        1.0
      ],
      "name": "White house roof"
    },
    {
      "mesh": 0,
      "name": "White house roof_0"
    },
    {
      "children": [
        5,
        6,
        8
      ],
      "matrix": [
        0.0036800000000000014,
        0.0,
        0.0,
        0.0,
        0.0,
        0.0036800000000000014,
        0.0,
        0.0,
        0.0,
        0.0,
        0.0036800000000000014,
        0.0,
        0.0,
        0.0,
        0.0,
        1.0
      ],
      "name": "White house"
    },
    {
      "mesh": 1,
      "name": "White house_0"
    },
    {
      "children": [
        7
      ],
      "matrix": [
        1.0,
        0.0,
        0.0,
        0.0,
        0.0,
        1.0,
        0.0,
        0.0,
        0.0,
        0.0,
        1.0,
        0.0,
        0.00012000000000000004,
        0.0,
        0.00017000000000000007,
        1.0
      ],
      "name": "White house.020"
    },
    {
      "mesh": 2,
      "name": "White house.020_0"
    },
    {
      "children": [
        9
      ],
      "matrix": [
        -290.86429000000004,
        955.1704100000001,
        -55.188930000000006,
        0.0,
        -771.10016,
        -199.88312000000002,
        604.52429,
        0.0,
        566.39288,
        218.39090000000002,
        794.67163,
        0.0,
        4082.8645,
        3399.18433,
        5903.85742,
        1.0
      ],
      "name": "Lamp"
    },
    {
      "name": "Lamp"
    },
    {
      "children": [
        11
      ],
      "matrix": [
        0.0036800000000000014,
        0.0,
        0.0,
        0.0,
        0.0,
        0.0036800000000000014,
        0.0,
        0.0,
        0.0,
        0.0,
        0.0036800000000000014,
        0.0,
        0.0,
        0.0,
        0.0,
        1.0
      ],
      "name": "White house.001"
    },
    {
      "mesh": 3,
      "name": "White house.001_0"
    }
  ],
  "scene": 0,
  "scenes": [
    {
      "name": "Sketchfab_Scene",
      "nodes": [
        0
      ]
    }
  ]
}
